<svg width="305" height="41" viewBox="0 0 305 41" fill="none" xmlns="http://www.w3.org/2000/svg">
<rect x="62.8662" width="179.033" height="41" rx="20" fill="#DBB1B1"/>
<rect x="62.8662" width="179.033" height="41" rx="20" fill="#FF383C" fill-opacity="0.5"/>
<path d="M99.5459 26.3336C98.6459 26.3336 97.6199 26.1056 96.4679 25.6496C96.3119 25.5776 96.1619 25.5416 96.0179 25.5416C95.8499 25.5416 95.6759 25.6016 95.4959 25.7216C95.3159 25.8296 95.0999 26.0096 94.8479 26.2616L94.0199 22.7336L93.9839 22.5716C93.9839 22.5476 93.9959 22.5236 94.0199 22.4996C94.0559 22.4756 94.0859 22.4576 94.1099 22.4456C94.1459 22.4336 94.1699 22.4216 94.1819 22.4096C94.2059 22.3976 94.2419 22.3916 94.2899 22.3916C94.3379 22.3916 94.4039 22.4396 94.4879 22.5356C95.8319 24.5756 97.4579 25.5956 99.3659 25.5956C100.134 25.5956 100.776 25.3976 101.292 25.0016C101.82 24.6056 102.084 24.0176 102.084 23.2376C102.084 22.3256 101.586 21.6476 100.59 21.2036C100.098 20.9876 99.4379 20.7476 98.6099 20.4836C98.5019 20.4476 98.2319 20.3576 97.7999 20.2136C97.3679 20.0696 96.9839 19.9136 96.6479 19.7456C95.2319 19.0256 94.5239 17.9456 94.5239 16.5056C94.5239 15.9656 94.6499 15.4016 94.9019 14.8136C95.1539 14.2256 95.5919 13.7216 96.2159 13.3016C96.8519 12.8696 97.6919 12.6536 98.7359 12.6536C99.1079 12.6536 99.4679 12.6956 99.8159 12.7796C100.176 12.8636 100.608 12.9896 101.112 13.1576C101.304 13.2296 101.472 13.2656 101.616 13.2656C101.952 13.2656 102.288 13.0616 102.624 12.6536L103.542 15.7676L103.578 15.8936C103.578 15.9656 103.524 16.0196 103.416 16.0556C103.344 16.0796 103.29 16.0916 103.254 16.0916C103.194 16.0916 103.134 16.0556 103.074 15.9836C102.93 15.7436 102.672 15.4196 102.3 15.0116C101.928 14.5916 101.424 14.2016 100.788 13.8416C100.164 13.4696 99.4619 13.2836 98.6819 13.2836C97.9859 13.2836 97.4519 13.4336 97.0799 13.7336C96.7079 14.0216 96.4619 14.3336 96.3419 14.6696C96.2219 15.0056 96.1619 15.2936 96.1619 15.5336C96.1619 16.3016 96.5579 16.8956 97.3499 17.3156C97.6019 17.4476 97.9319 17.5916 98.3399 17.7476C98.7599 17.8916 99.1859 18.0356 99.6179 18.1796C100.626 18.5036 101.382 18.7796 101.886 19.0076C102.738 19.4156 103.344 19.9136 103.704 20.5016C104.064 21.0776 104.244 21.7016 104.244 22.3736C104.244 23.1176 104.058 23.7896 103.686 24.3896C103.326 24.9896 102.792 25.4636 102.084 25.8116C101.376 26.1596 100.53 26.3336 99.5459 26.3336ZM115.045 24.5156C115.141 24.5156 115.189 24.5576 115.189 24.6416L115.171 24.7496C115.027 25.2056 114.757 25.5776 114.361 25.8656C113.977 26.1536 113.575 26.2976 113.155 26.2976C112.291 26.2976 111.733 25.8956 111.481 25.0916C111.013 25.4996 110.491 25.8116 109.915 26.0276C109.339 26.2436 108.769 26.3516 108.205 26.3516C107.461 26.3516 106.879 26.1836 106.459 25.8476C106.039 25.4996 105.829 25.0136 105.829 24.3896C105.829 23.4776 106.327 22.7516 107.323 22.2116C107.599 22.0676 107.911 21.9536 108.259 21.8696C108.607 21.7736 109.075 21.6656 109.663 21.5456C109.843 21.5096 110.101 21.4556 110.437 21.3836C110.785 21.2996 111.091 21.2216 111.355 21.1496V20.3396C111.355 19.6556 111.331 19.1696 111.283 18.8816C111.247 18.5816 111.151 18.3356 110.995 18.1436C110.767 17.8436 110.413 17.6936 109.933 17.6936C109.609 17.6936 109.333 17.7956 109.105 17.9996C108.877 18.1916 108.691 18.5696 108.547 19.1336C108.439 19.5416 108.277 19.8476 108.061 20.0516C107.857 20.2436 107.617 20.3396 107.341 20.3396C107.065 20.3396 106.819 20.2616 106.603 20.1056C106.387 19.9376 106.279 19.7036 106.279 19.4036C106.279 19.1756 106.369 18.8936 106.549 18.5576C106.741 18.2096 107.107 17.8916 107.647 17.6036C108.187 17.3156 108.949 17.1716 109.933 17.1716C110.653 17.1716 111.259 17.2676 111.751 17.4596C112.243 17.6516 112.627 17.9096 112.903 18.2336C113.119 18.4736 113.263 18.7376 113.335 19.0256C113.407 19.3136 113.443 19.6676 113.443 20.0876C113.443 20.9036 113.437 21.5276 113.425 21.9596L113.407 23.9756C113.407 24.4916 113.467 24.8276 113.587 24.9836C113.719 25.1396 113.875 25.2176 114.055 25.2176C114.199 25.2176 114.349 25.1696 114.505 25.0736C114.661 24.9656 114.799 24.8096 114.919 24.6056C114.955 24.5456 114.997 24.5156 115.045 24.5156ZM109.411 25.3616C109.735 25.3616 110.065 25.2956 110.401 25.1636C110.749 25.0316 111.067 24.8396 111.355 24.5876C111.319 24.3116 111.301 24.0356 111.301 23.7596L111.337 21.6536C110.185 21.9416 109.339 22.2956 108.799 22.7156C108.259 23.1236 107.989 23.6336 107.989 24.2456C107.989 24.5696 108.115 24.8396 108.367 25.0556C108.619 25.2596 108.967 25.3616 109.411 25.3616ZM116.599 18.7196C116.299 18.1436 115.861 17.8376 115.285 17.8016C115.225 17.7896 115.189 17.7716 115.177 17.7476C115.153 17.7116 115.141 17.6516 115.141 17.5676C115.141 17.4356 115.189 17.3696 115.285 17.3696H119.677C119.761 17.3696 119.803 17.4356 119.803 17.5676C119.803 17.7236 119.755 17.8016 119.659 17.8016C119.395 17.8016 119.173 17.8436 118.993 17.9276C118.825 18.0116 118.741 18.1376 118.741 18.3056C118.741 18.3896 118.747 18.4616 118.759 18.5216C118.771 18.5696 118.783 18.6176 118.795 18.6656L120.865 24.1736C121.273 23.1416 121.753 21.8456 122.305 20.2856L122.773 19.0076C122.809 18.8636 122.827 18.7436 122.827 18.6476C122.827 18.3236 122.677 18.1076 122.377 17.9996C122.089 17.8796 121.801 17.8076 121.513 17.7836C121.429 17.7716 121.387 17.6996 121.387 17.5676C121.387 17.4356 121.429 17.3696 121.513 17.3696H125.149C125.233 17.3696 125.275 17.4356 125.275 17.5676C125.275 17.6516 125.257 17.7056 125.221 17.7296C125.185 17.7536 125.107 17.7836 124.987 17.8196C124.711 17.8436 124.429 17.9756 124.141 18.2156C123.853 18.4436 123.619 18.7436 123.439 19.1156C123.283 19.4756 122.371 21.8816 120.703 26.3336H119.605L116.599 18.7196ZM134.355 23.7956C134.415 23.8316 134.445 23.8916 134.445 23.9756L134.427 24.1016C134.151 24.6896 133.707 25.2116 133.095 25.6676C132.495 26.1116 131.739 26.3336 130.827 26.3336C129.951 26.3336 129.159 26.1356 128.451 25.7396C127.743 25.3436 127.185 24.8036 126.777 24.1196C126.381 23.4236 126.183 22.6676 126.183 21.8516C126.183 21.1076 126.351 20.3756 126.687 19.6556C127.035 18.9356 127.545 18.3416 128.217 17.8736C128.889 17.4056 129.687 17.1716 130.611 17.1716C131.283 17.1716 131.901 17.3276 132.465 17.6396C133.029 17.9516 133.491 18.3956 133.851 18.9716C134.223 19.5476 134.451 20.2316 134.535 21.0236L128.451 21.0596C128.439 21.1916 128.433 21.4016 128.433 21.6896C128.433 22.7456 128.679 23.6336 129.171 24.3536C129.663 25.0736 130.371 25.4336 131.295 25.4336C132.423 25.4336 133.347 24.9056 134.067 23.8496C134.103 23.7896 134.157 23.7596 134.229 23.7596C134.241 23.7596 134.283 23.7716 134.355 23.7956ZM130.539 17.6756C130.119 17.6756 129.705 17.8796 129.297 18.2876C128.901 18.6836 128.637 19.3976 128.505 20.4296L132.321 20.3936V20.0876C132.309 19.3316 132.129 18.7436 131.781 18.3236C131.445 17.8916 131.031 17.6756 130.539 17.6756ZM145.905 12.6176C146.469 12.6176 146.919 12.7496 147.255 13.0136C147.603 13.2656 147.777 13.5476 147.777 13.8596C147.777 14.1116 147.693 14.3216 147.525 14.4896C147.357 14.6576 147.123 14.7416 146.823 14.7416C146.499 14.7416 146.241 14.6696 146.049 14.5256C145.869 14.3696 145.689 14.1596 145.509 13.8956C145.377 13.7156 145.263 13.5836 145.167 13.4996C145.083 13.4156 144.975 13.3736 144.843 13.3736C144.651 13.3736 144.501 13.4996 144.393 13.7516C144.297 13.9916 144.237 14.4116 144.213 15.0116C144.189 15.2756 144.177 15.7136 144.177 16.3256V17.3696H145.995V17.9816H144.177V24.8036C144.177 25.1636 144.273 25.3976 144.465 25.5056C144.669 25.6136 144.945 25.6676 145.293 25.6676H145.509C145.593 25.6676 145.635 25.7396 145.635 25.8836C145.635 26.0276 145.593 26.0996 145.509 26.0996H140.775C140.691 26.0996 140.649 26.0276 140.649 25.8836C140.649 25.7396 140.691 25.6676 140.775 25.6676H140.973C141.321 25.6676 141.591 25.6136 141.783 25.5056C141.987 25.3976 142.089 25.1636 142.089 24.8036V17.9816H140.505V17.3696H142.107C142.143 16.5056 142.311 15.7136 142.611 14.9936C142.911 14.2736 143.343 13.6976 143.907 13.2656C144.471 12.8336 145.137 12.6176 145.905 12.6176ZM152.392 26.3336C151.504 26.3336 150.718 26.1176 150.034 25.6856C149.35 25.2416 148.822 24.6656 148.45 23.9576C148.078 23.2496 147.892 22.5116 147.892 21.7436C147.892 20.9516 148.078 20.2076 148.45 19.5116C148.822 18.8036 149.35 18.2396 150.034 17.8196C150.718 17.3876 151.504 17.1716 152.392 17.1716C153.28 17.1716 154.066 17.3876 154.75 17.8196C155.446 18.2396 155.98 18.8036 156.352 19.5116C156.736 20.2076 156.928 20.9516 156.928 21.7436C156.928 22.5116 156.736 23.2496 156.352 23.9576C155.98 24.6656 155.446 25.2416 154.75 25.6856C154.066 26.1176 153.28 26.3336 152.392 26.3336ZM152.392 25.8476C153.124 25.8476 153.694 25.4516 154.102 24.6596C154.522 23.8556 154.732 22.8836 154.732 21.7436C154.732 20.5796 154.528 19.6136 154.12 18.8456C153.712 18.0656 153.136 17.6756 152.392 17.6756C151.672 17.6756 151.108 18.0656 150.7 18.8456C150.292 19.6256 150.088 20.5916 150.088 21.7436C150.088 22.8836 150.292 23.8556 150.7 24.6596C151.108 25.4516 151.672 25.8476 152.392 25.8476ZM164.379 17.1536C164.859 17.1536 165.249 17.2856 165.549 17.5496C165.849 17.8136 165.999 18.1196 165.999 18.4676C165.999 18.7436 165.903 18.9716 165.711 19.1516C165.531 19.3316 165.303 19.4216 165.027 19.4216C164.847 19.4216 164.685 19.3856 164.541 19.3136C164.409 19.2296 164.247 19.1096 164.055 18.9536C163.887 18.8216 163.737 18.7196 163.605 18.6476C163.473 18.5756 163.335 18.5396 163.191 18.5396C162.903 18.5396 162.633 18.6836 162.381 18.9716C162.129 19.2476 161.895 19.6196 161.679 20.0876V24.8036C161.679 25.1636 161.769 25.3976 161.949 25.5056C162.129 25.6136 162.387 25.6676 162.723 25.6676H162.939C163.023 25.6676 163.065 25.7396 163.065 25.8836C163.065 26.0276 163.023 26.0996 162.939 26.0996H158.385C158.301 26.0996 158.259 26.0276 158.259 25.8836C158.259 25.7396 158.301 25.6676 158.385 25.6676H158.565C158.901 25.6676 159.159 25.6136 159.339 25.5056C159.519 25.3976 159.609 25.1636 159.609 24.8036V19.2416C159.609 18.8696 159.519 18.6236 159.339 18.5036C159.159 18.3836 158.859 18.3116 158.439 18.2876C158.331 18.2756 158.277 18.1796 158.277 17.9996C158.277 17.9276 158.313 17.8856 158.385 17.8736C158.505 17.8256 159.603 17.5916 161.679 17.1716V19.2056C162.027 18.5816 162.435 18.0836 162.903 17.7116C163.383 17.3396 163.875 17.1536 164.379 17.1536ZM174.996 23.7956C175.056 23.8316 175.086 23.8916 175.086 23.9756L175.068 24.1016C174.792 24.6896 174.348 25.2116 173.736 25.6676C173.136 26.1116 172.38 26.3336 171.468 26.3336C170.592 26.3336 169.8 26.1356 169.092 25.7396C168.384 25.3436 167.826 24.8036 167.418 24.1196C167.022 23.4236 166.824 22.6676 166.824 21.8516C166.824 21.1076 166.992 20.3756 167.328 19.6556C167.676 18.9356 168.186 18.3416 168.858 17.8736C169.53 17.4056 170.328 17.1716 171.252 17.1716C171.924 17.1716 172.542 17.3276 173.106 17.6396C173.67 17.9516 174.132 18.3956 174.492 18.9716C174.864 19.5476 175.092 20.2316 175.176 21.0236L169.092 21.0596C169.08 21.1916 169.074 21.4016 169.074 21.6896C169.074 22.7456 169.32 23.6336 169.812 24.3536C170.304 25.0736 171.012 25.4336 171.936 25.4336C173.064 25.4336 173.988 24.9056 174.708 23.8496C174.744 23.7896 174.798 23.7596 174.87 23.7596C174.882 23.7596 174.924 23.7716 174.996 23.7956ZM171.18 17.6756C170.76 17.6756 170.346 17.8796 169.938 18.2876C169.542 18.6836 169.278 19.3976 169.146 20.4296L172.962 20.3936V20.0876C172.95 19.3316 172.77 18.7436 172.422 18.3236C172.086 17.8916 171.672 17.6756 171.18 17.6756ZM181.165 26.3336C180.421 26.3336 179.707 26.1596 179.023 25.8116C178.339 25.4636 177.781 24.9536 177.349 24.2816C176.917 23.5976 176.701 22.7816 176.701 21.8336C176.701 21.1016 176.875 20.3756 177.223 19.6556C177.583 18.9356 178.105 18.3416 178.789 17.8736C179.473 17.4056 180.289 17.1716 181.237 17.1716C182.053 17.1716 182.725 17.2916 183.253 17.5316C183.781 17.7596 184.165 18.0416 184.405 18.3776C184.645 18.7016 184.765 19.0016 184.765 19.2776C184.765 19.5656 184.669 19.8056 184.477 19.9976C184.297 20.1896 184.087 20.2856 183.847 20.2856C183.547 20.2856 183.301 20.1956 183.109 20.0156C182.917 19.8236 182.725 19.5536 182.533 19.2056C182.293 18.7136 182.059 18.3416 181.831 18.0896C181.603 17.8376 181.327 17.7116 181.003 17.7116C180.607 17.7116 180.253 17.8796 179.941 18.2156C179.641 18.5516 179.401 19.0256 179.221 19.6376C179.053 20.2496 178.969 20.9516 178.969 21.7436C178.969 22.6076 179.095 23.3216 179.347 23.8856C179.611 24.4496 179.941 24.8576 180.337 25.1096C180.745 25.3616 181.177 25.4876 181.633 25.4876C182.773 25.4876 183.679 25.0076 184.351 24.0476C184.399 23.9876 184.447 23.9576 184.495 23.9576C184.555 23.9576 184.603 23.9696 184.639 23.9936C184.723 24.0296 184.765 24.0836 184.765 24.1556C184.765 24.2036 184.753 24.2396 184.729 24.2636C184.405 24.8516 183.937 25.3436 183.325 25.7396C182.725 26.1356 182.005 26.3336 181.165 26.3336ZM195.535 24.5156C195.631 24.5156 195.679 24.5576 195.679 24.6416L195.661 24.7496C195.517 25.2056 195.247 25.5776 194.851 25.8656C194.467 26.1536 194.065 26.2976 193.645 26.2976C192.781 26.2976 192.223 25.8956 191.971 25.0916C191.503 25.4996 190.981 25.8116 190.405 26.0276C189.829 26.2436 189.259 26.3516 188.695 26.3516C187.951 26.3516 187.369 26.1836 186.949 25.8476C186.529 25.4996 186.319 25.0136 186.319 24.3896C186.319 23.4776 186.817 22.7516 187.813 22.2116C188.089 22.0676 188.401 21.9536 188.749 21.8696C189.097 21.7736 189.565 21.6656 190.153 21.5456C190.333 21.5096 190.591 21.4556 190.927 21.3836C191.275 21.2996 191.581 21.2216 191.845 21.1496V20.3396C191.845 19.6556 191.821 19.1696 191.773 18.8816C191.737 18.5816 191.641 18.3356 191.485 18.1436C191.257 17.8436 190.903 17.6936 190.423 17.6936C190.099 17.6936 189.823 17.7956 189.595 17.9996C189.367 18.1916 189.181 18.5696 189.037 19.1336C188.929 19.5416 188.767 19.8476 188.551 20.0516C188.347 20.2436 188.107 20.3396 187.831 20.3396C187.555 20.3396 187.309 20.2616 187.093 20.1056C186.877 19.9376 186.769 19.7036 186.769 19.4036C186.769 19.1756 186.859 18.8936 187.039 18.5576C187.231 18.2096 187.597 17.8916 188.137 17.6036C188.677 17.3156 189.439 17.1716 190.423 17.1716C191.143 17.1716 191.749 17.2676 192.241 17.4596C192.733 17.6516 193.117 17.9096 193.393 18.2336C193.609 18.4736 193.753 18.7376 193.825 19.0256C193.897 19.3136 193.933 19.6676 193.933 20.0876C193.933 20.9036 193.927 21.5276 193.915 21.9596L193.897 23.9756C193.897 24.4916 193.957 24.8276 194.077 24.9836C194.209 25.1396 194.365 25.2176 194.545 25.2176C194.689 25.2176 194.839 25.1696 194.995 25.0736C195.151 24.9656 195.289 24.8096 195.409 24.6056C195.445 24.5456 195.487 24.5156 195.535 24.5156ZM189.901 25.3616C190.225 25.3616 190.555 25.2956 190.891 25.1636C191.239 25.0316 191.557 24.8396 191.845 24.5876C191.809 24.3116 191.791 24.0356 191.791 23.7596L191.827 21.6536C190.675 21.9416 189.829 22.2956 189.289 22.7156C188.749 23.1236 188.479 23.6336 188.479 24.2456C188.479 24.5696 188.605 24.8396 188.857 25.0556C189.109 25.2596 189.457 25.3616 189.901 25.3616ZM196.621 23.3996L196.603 23.3096C196.603 23.2136 196.651 23.1476 196.747 23.1116C196.771 23.0996 196.807 23.0936 196.855 23.0936C196.939 23.0936 197.005 23.1356 197.053 23.2196C198.121 24.9116 199.405 25.7576 200.905 25.7576C201.457 25.7576 201.871 25.6256 202.147 25.3616C202.435 25.0976 202.579 24.7616 202.579 24.3536C202.579 24.0896 202.495 23.8436 202.327 23.6156C202.159 23.3876 201.925 23.2076 201.625 23.0756C201.325 22.9436 200.785 22.7636 200.005 22.5356C199.933 22.5116 199.717 22.4456 199.357 22.3376C198.997 22.2296 198.715 22.1216 198.511 22.0136C198.019 21.7736 197.635 21.4676 197.359 21.0956C197.083 20.7236 196.945 20.2856 196.945 19.7816C196.945 19.3616 197.053 18.9536 197.269 18.5576C197.497 18.1496 197.827 17.8196 198.259 17.5676C198.691 17.3036 199.207 17.1716 199.807 17.1716C200.155 17.1716 200.461 17.2016 200.725 17.2616C201.001 17.3096 201.337 17.3876 201.733 17.4956C202.009 17.5796 202.177 17.6216 202.237 17.6216C202.417 17.6216 202.591 17.5676 202.759 17.4596C202.939 17.3396 203.077 17.1896 203.173 17.0096L203.965 19.6736L203.983 19.7816C203.983 19.8536 203.935 19.9136 203.839 19.9616C203.791 19.9856 203.743 19.9976 203.695 19.9976C203.623 19.9976 203.563 19.9616 203.515 19.8896C203.047 19.1936 202.465 18.6596 201.769 18.2876C201.073 17.9156 200.425 17.7296 199.825 17.7296C199.297 17.7296 198.913 17.8616 198.673 18.1256C198.445 18.3896 198.331 18.6596 198.331 18.9356C198.331 19.1636 198.409 19.3676 198.565 19.5476C198.733 19.7276 198.997 19.9076 199.357 20.0876C199.585 20.1956 200.029 20.3516 200.689 20.5556C201.565 20.8316 202.195 21.0596 202.579 21.2396C203.095 21.4916 203.503 21.8156 203.803 22.2116C204.115 22.6076 204.271 23.0756 204.271 23.6156C204.271 24.4556 203.965 25.1216 203.353 25.6136C202.753 26.0936 201.967 26.3336 200.995 26.3336C200.659 26.3336 200.341 26.3036 200.041 26.2436C199.741 26.1836 199.387 26.0996 198.979 25.9916C198.607 25.8836 198.373 25.8296 198.277 25.8296C198.109 25.8296 197.953 25.8776 197.809 25.9736C197.665 26.0696 197.515 26.2076 197.359 26.3876L196.621 23.3996ZM209.146 26.3336C208.366 26.3336 207.772 26.1116 207.364 25.6676C206.956 25.2236 206.74 24.5756 206.716 23.7236V17.9816H205.15V17.3696C206.002 17.1776 206.704 16.8116 207.256 16.2716C207.82 15.7196 208.21 14.8556 208.426 13.6796H208.786V17.3696H211.072V17.9816H208.786L208.75 22.1396L208.768 23.6336C208.828 24.7496 209.248 25.3076 210.028 25.3076C210.28 25.3076 210.496 25.2596 210.676 25.1636C210.856 25.0676 211.06 24.8996 211.288 24.6596C211.348 24.5876 211.402 24.5516 211.45 24.5516C211.498 24.5516 211.546 24.5816 211.594 24.6416C211.654 24.6896 211.684 24.7376 211.684 24.7856C211.684 24.8096 211.672 24.8456 211.648 24.8936C211.312 25.4096 210.94 25.7816 210.532 26.0096C210.124 26.2256 209.662 26.3336 209.146 26.3336Z" fill="white"/>
</svg>
