<svg width="97" height="97" viewBox="0 0 97 97" fill="none" xmlns="http://www.w3.org/2000/svg">
<circle cx="48.5" cy="48.5" r="45.5" stroke="white" stroke-width="6"/>
<path d="M48.0742 18.3613C49.6421 18.3613 50.9781 18.8975 52.0459 19.9736C53.1135 21.0495 53.6445 22.394 53.6445 23.9707C53.6445 25.5472 53.1133 26.891 52.0459 27.9668C50.9781 29.0429 49.6421 29.5801 48.0742 29.5801C46.5278 29.58 45.1955 29.042 44.1074 27.9717L44.1035 27.9668C43.0359 26.8909 42.5049 25.5473 42.5049 23.9707C42.5049 22.394 43.0359 21.0495 44.1035 19.9736L44.1074 19.9697C45.1955 18.8993 46.5277 18.3614 48.0742 18.3613ZM52.2617 67.5234C52.2617 68.4072 52.3285 69.117 52.4531 69.6631C52.5767 70.2043 52.7478 70.544 52.9287 70.7402C53.1218 70.9246 53.4595 71.0998 54.002 71.2256C54.5426 71.3509 55.2459 71.418 56.1221 71.418H58.4307V74.5977H38.5693V71.418H41.2324C42.1206 71.4179 42.833 71.351 43.3799 71.2256C43.9299 71.0994 44.2698 70.9231 44.4619 70.7393C44.6539 70.5434 44.8351 70.2032 44.9648 69.6582C45.0944 69.1141 45.1641 68.406 45.1641 67.5234V45.6934C45.1641 44.6042 45.028 43.9667 44.8457 43.666L44.8359 43.6484C44.711 43.4219 44.484 43.2637 43.9971 43.2637C43.8169 43.2637 43.5141 43.3116 43.0645 43.4336C42.6253 43.5528 42.076 43.733 41.4141 43.9785L39.9609 44.5508L39.4668 44.7451L39.3027 44.2402L38.5938 42.0605L38.4521 41.626L38.873 41.4463L50.8564 36.3369L51.1689 36.2041L51.4072 36.4443L52.1162 37.1592L52.2617 37.3057V67.5234Z" fill="white" stroke="white"/>
</svg>
