<?xml version="1.0" encoding="UTF-8"?>
<svg id="Layer_2" data-name="Layer 2" xmlns="http://www.w3.org/2000/svg" viewBox="0 0 136.99 30.6">
  <defs>
    <style>
      .cls-1 {
        fill: #fff;
        stroke-width: 0px;
      }
    </style>
  </defs>
  <g id="Layer_1-2" data-name="Layer 1">
    <path id="SurfSense" class="cls-1" d="M0,17.7l.6-.29c.15.55.3,1.03.47,1.45.17.41.38.84.63,1.3.26.45.57.83.92,1.16.36.31.78.61,1.26.88.48.26,1.05.46,1.71.6.66.13,1.41.19,2.23.19,1.62,0,2.96-.45,4.03-1.35,1.07-.9,1.61-2.07,1.61-3.52,0-.72-.12-1.37-.37-1.93-.23-.57-.55-1.04-.95-1.41-.4-.37-.86-.71-1.39-1.01-.52-.3-1.06-.58-1.64-.82-.58-.25-1.15-.51-1.73-.76-.57-.25-1.11-.55-1.64-.89-.52-.34-.98-.73-1.38-1.16-.4-.43-.72-.97-.97-1.63-.23-.65-.35-1.39-.35-2.21,0-1.83.63-3.33,1.9-4.51,1.27-1.19,2.98-1.79,5.13-1.79.62,0,1.18.04,1.7.13.52.09.92.19,1.2.29.29.1.59.19.88.28.3.09.56.13.78.13.23,0,.52-.09.86-.26l.97-.57h.12l.69,6.3-.6.31c-.23-.77-.47-1.42-.7-1.95-.23-.54-.53-1.05-.88-1.54-.35-.49-.75-.87-1.2-1.16-.44-.29-.98-.52-1.61-.69-.63-.17-1.37-.25-2.2-.25-1.47,0-2.7.43-3.66,1.3-.96.86-1.44,2-1.44,3.43,0,.68.12,1.29.35,1.83.24.53.57.97.97,1.33.41.35.87.67,1.39.97.53.29,1.08.56,1.66.81.59.23,1.17.48,1.74.73.59.25,1.14.55,1.66.88.53.32.99.69,1.39,1.11.41.41.73.93.97,1.55.24.62.37,1.33.37,2.12,0,1.96-.74,3.6-2.23,4.92-1.47,1.32-3.42,1.98-5.84,1.98-.68,0-1.3-.04-1.86-.13-.56-.09-.98-.18-1.27-.28-.28-.11-.57-.21-.86-.29-.29-.09-.55-.13-.76-.13s-.5.09-.85.28l-.98.56h-.12l-.69-6.3ZM18.82,10.2l.32-1.49h4.98l.13.12-2.29,7.62c-.42,1.39-.63,2.45-.63,3.18s.25,1.34.75,1.85c.51.5,1.14.75,1.89.75.94,0,1.74-.41,2.4-1.23.67-.82,1.47-2.41,2.4-4.78l2.94-7.5h1.79l-2.45,10.14c-.21.79-.31,1.41-.31,1.86,0,.61.28.91.83.91.36,0,.77-.22,1.23-.66.46-.45,1.09-1.23,1.89-2.34l.6.29-1.98,2.71c-.48.63-.87,1.11-1.19,1.42s-.61.53-.91.67h-.6c-.6,0-1.06-.21-1.41-.64s-.51-1-.51-1.7c0-.42.1-.92.29-1.49l2.11-5.76h-.37l-1.74,3.9c-.93,2.07-1.91,3.59-2.96,4.56-1.04.96-2.22,1.44-3.52,1.44-1.08,0-1.92-.3-2.5-.91-.58-.61-.86-1.3-.86-2.08,0-.25.01-.51.04-.76.04-.26.07-.49.1-.67.04-.2.11-.45.21-.78.11-.33.19-.59.25-.76.07-.18.19-.49.35-.95.17-.47.29-.82.38-1.05.18-.47.5-1.35.98-2.64.49-1.3.89-2.36,1.2-3.19h-3.87ZM36.81,23.7l3.3-13.51h-3.3l.29-1.49h4.98l.13.12c0,.25-.44,1.74-1.33,4.45-.88,2.71-1.44,4.39-1.67,5.02h.35l1.86-3.9c.95-1.99,1.87-3.49,2.77-4.48.9-1.01,1.88-1.51,2.93-1.51.93,0,1.39.38,1.39,1.13,0,.44-.11.81-.34,1.11-.21.3-.52.45-.92.45h-1.74c-.49,0-.92.13-1.3.38-.37.25-.78.76-1.22,1.51-.44.75-.93,1.82-1.48,3.21l-2.9,7.5h-1.8ZM39.89,29.46c0-.28.07-.54.22-.78.14-.22.3-.39.5-.48h3.18c.76,0,1.44-.12,2.02-.37.59-.23,1.07-.54,1.46-.92.39-.38.74-.9,1.05-1.57.32-.65.58-1.3.78-1.93.2-.64.4-1.45.62-2.4l2.46-10.81h-3.15l.31-1.49h3.18l.48-2.09c.19-.81.49-1.58.92-2.31.44-.73.93-1.35,1.46-1.86.55-.51,1.12-.95,1.73-1.32.61-.38,1.18-.66,1.71-.84.55-.19,1.03-.28,1.45-.28,1.24,0,1.86.54,1.86,1.63,0,.39-.12.72-.35.98-.22.26-.55.4-.97.4-.27,0-.51-.05-.7-.15-.2-.11-.35-.23-.47-.38-.11-.15-.22-.29-.34-.44-.12-.16-.27-.28-.47-.38-.2-.11-.43-.16-.72-.16-.58,0-1.07.38-1.49,1.13-.42.74-.89,2.01-1.42,3.79l-.66,2.29h3.78l-.29,1.49h-3.94l-2.81,9.61c-.28.96-.55,1.8-.81,2.52-.24.72-.54,1.47-.89,2.26-.34.79-.7,1.47-1.07,2.04-.36.57-.79,1.11-1.29,1.64-.5.53-1.03.95-1.6,1.27-.58.32-1.23.58-1.96.78-.74.2-1.54.29-2.4.29-.92,0-1.38-.38-1.38-1.14ZM56.98,17.7l.6-.29c.15.55.3,1.03.47,1.45.17.41.38.84.63,1.3.26.45.57.83.92,1.16.36.31.78.61,1.26.88.48.26,1.05.46,1.71.6.66.13,1.41.19,2.23.19,1.62,0,2.96-.45,4.03-1.35,1.07-.9,1.61-2.07,1.61-3.52,0-.72-.12-1.37-.37-1.93-.23-.57-.55-1.04-.95-1.41-.4-.37-.86-.71-1.39-1.01-.52-.3-1.06-.58-1.64-.82-.58-.25-1.15-.51-1.73-.76-.57-.25-1.11-.55-1.64-.89-.52-.34-.98-.73-1.38-1.16-.4-.43-.72-.97-.97-1.63-.23-.65-.35-1.39-.35-2.21,0-1.83.63-3.33,1.9-4.51,1.27-1.19,2.98-1.79,5.13-1.79.62,0,1.18.04,1.7.13.52.09.92.19,1.2.29.29.1.59.19.88.28.3.09.56.13.78.13.23,0,.52-.09.86-.26l.97-.57h.12l.69,6.3-.6.31c-.23-.77-.47-1.42-.7-1.95-.23-.54-.53-1.05-.88-1.54-.35-.49-.75-.87-1.2-1.16-.44-.29-.98-.52-1.61-.69-.63-.17-1.37-.25-2.2-.25-1.47,0-2.7.43-3.66,1.3-.96.86-1.44,2-1.44,3.43,0,.68.12,1.29.35,1.83.24.53.57.97.97,1.33.41.35.87.67,1.39.97.53.29,1.08.56,1.66.81.59.23,1.17.48,1.74.73.59.25,1.14.55,1.66.88.53.32.99.69,1.39,1.11.41.41.73.93.97,1.55.24.62.37,1.33.37,2.12,0,1.96-.74,3.6-2.23,4.92-1.47,1.32-3.42,1.98-5.84,1.98-.68,0-1.3-.04-1.86-.13-.56-.09-.98-.18-1.27-.28-.28-.11-.57-.21-.86-.29-.29-.09-.55-.13-.76-.13s-.5.09-.85.28l-.98.56h-.12l-.69-6.3ZM75.81,18.3c0-1.24.24-2.47.72-3.68.49-1.22,1.12-2.28,1.89-3.18.78-.91,1.68-1.64,2.71-2.2,1.03-.56,2.05-.83,3.08-.83.53,0,1,.07,1.42.22.43.14.77.32,1.03.54.26.22.49.48.69.78.2.28.32.57.38.86.06.28.1.56.13.82.04.26.02.49-.04.67l-.89,3.6h-9.55c-.04.39-.06.69-.06.89,0,1.54.43,2.83,1.3,3.87.87,1.03,2.04,1.54,3.5,1.54.55,0,1.08-.08,1.6-.25.52-.18.97-.39,1.35-.63.39-.25.77-.56,1.13-.92.36-.37.65-.71.88-1.01.23-.3.46-.64.67-1.01.21-.37.36-.63.44-.79.08-.16.16-.32.23-.5l.6.31c-1.77,3.47-3.86,5.57-6.27,6.31-.6.19-1.21.28-1.83.28-1.64,0-2.9-.49-3.78-1.48-.88-1-1.32-2.4-1.32-4.22ZM77.7,14.4h8.61v-.89c0-2.21-1.1-3.31-3.31-3.31-1.23,0-2.32.39-3.28,1.17-.95.77-1.62,1.78-2.02,3.03ZM90.5,23.7l3.31-13.51h-3.31l.31-1.49h4.98l.12.12c0,.25-.44,1.74-1.33,4.45-.88,2.71-1.44,4.39-1.67,5.02h.37l1.74-3.9c.93-2.07,1.91-3.58,2.96-4.54,1.04-.97,2.22-1.45,3.52-1.45,1.08,0,1.91.3,2.49.91.58.61.86,1.3.86,2.08,0,.25-.02.52-.06.79-.04.26-.08.49-.12.67-.03.18-.11.44-.23.79-.13.35-.22.6-.28.75-.05.15-.18.47-.38.97-.2.5-.33.83-.4,1.01-.55,1.34-.89,2.21-1.03,2.62-.14.4-.2.77-.2,1.1,0,1.01.48,1.51,1.43,1.51.36,0,.77-.22,1.23-.66.46-.45,1.09-1.23,1.89-2.34l.6.29-1.98,2.71c-.48.63-.87,1.11-1.19,1.42-.3.3-.61.53-.91.67h-.6c-.6,0-1.06-.21-1.41-.64-.34-.43-.51-1-.51-1.7,0-.47.08-1.01.24-1.61l1.05-3.78c.04-.17.13-.48.28-.95.16-.48.26-.87.32-1.19.06-.32.09-.67.09-1.04,0-.73-.25-1.35-.75-1.85-.5-.5-1.13-.75-1.89-.75-.64,0-1.19.17-1.65.51-.47.33-.95.93-1.45,1.79-.5.86-1.06,2.09-1.7,3.71l-2.94,7.5h-1.8ZM108.49,18l.6-.31c.05.18.09.31.12.41.03.09.14.35.32.78.18.42.37.78.56,1.08.2.29.47.65.83,1.08.37.43.76.78,1.16,1.05.41.26.92.5,1.52.7.61.2,1.25.29,1.92.29,1.99,0,2.99-.8,2.99-2.4,0-.53-.15-1-.44-1.41-.28-.41-.65-.75-1.11-1.03-.46-.27-.97-.53-1.52-.78-.55-.25-1.1-.52-1.65-.79-.55-.28-1.05-.6-1.51-.94-.46-.34-.84-.78-1.13-1.32-.28-.54-.43-1.15-.43-1.85,0-.86.23-1.62.7-2.27.47-.65,1.05-1.14,1.74-1.45.7-.31,1.45-.47,2.23-.47.55,0,1.04.06,1.48.18.44.11.77.23,1,.37.22.13.44.25.66.37.22.11.42.16.59.16.18,0,.35-.07.48-.21l.91-.86h.12l.98,5.99-.6.31c-.04-.14-.08-.27-.13-.4-.04-.14-.14-.4-.31-.79-.17-.39-.34-.75-.51-1.07-.18-.32-.42-.69-.73-1.1-.3-.41-.62-.76-.95-1.04-.33-.28-.73-.52-1.2-.72-.47-.2-.96-.29-1.46-.29-.87,0-1.57.23-2.1.7-.53.46-.79,1.12-.79,1.99,0,.53.14,1,.41,1.42s.63.77,1.07,1.05c.45.28.94.56,1.46.82.54.25,1.07.52,1.6.79.54.27,1.03.57,1.46.89.45.31.81.71,1.08,1.2.27.48.41,1.02.41,1.63,0,1.36-.48,2.4-1.44,3.12-.96.71-2.12,1.07-3.49,1.07-.63,0-1.22-.06-1.76-.18-.53-.11-.93-.22-1.22-.35-.27-.14-.54-.26-.8-.37-.26-.12-.47-.18-.63-.18-.18,0-.33.07-.47.21l-.91.86h-.12l-1-5.99ZM123.79,18.3c0-1.24.24-2.47.72-3.68.49-1.22,1.12-2.28,1.89-3.18.78-.91,1.68-1.64,2.71-2.2,1.03-.56,2.05-.83,3.08-.83.53,0,1,.07,1.42.22.43.14.77.32,1.02.54.26.22.49.48.69.78.2.28.32.57.38.86.06.28.1.56.13.82.04.26.02.49-.04.67l-.89,3.6h-9.55c-.04.39-.06.69-.06.89,0,1.54.43,2.83,1.3,3.87.87,1.03,2.04,1.54,3.5,1.54.55,0,1.08-.08,1.6-.25.52-.18.97-.39,1.35-.63.39-.25.77-.56,1.13-.92.36-.37.65-.71.88-1.01.24-.3.46-.64.67-1.01.21-.37.36-.63.44-.79.08-.16.16-.32.24-.5l.6.31c-1.77,3.47-3.86,5.57-6.27,6.31-.6.19-1.21.28-1.83.28-1.64,0-2.9-.49-3.78-1.48-.88-1-1.32-2.4-1.32-4.22ZM125.68,14.4h8.61v-.89c0-2.21-1.1-3.31-3.31-3.31-1.23,0-2.32.39-3.28,1.17-.95.77-1.62,1.78-2.02,3.03Z"/>
  </g>
</svg>